<?xml version="1.0" encoding="UTF-8"?>
<svg width="752pt" height="752pt" version="1.1" viewBox="0 0 752 752" xmlns="http://www.w3.org/2000/svg">
 <g>
  <path d="m376 0c-49.375 0-98.27 9.7266-143.89 28.621-45.621 18.895-87.07 46.59-121.98 81.508-34.918 34.914-62.613 76.363-81.508 121.98-18.895 45.617-28.621 94.512-28.621 143.89 0 99.723 39.617 195.36 110.13 265.87 70.516 70.516 166.15 110.13 265.87 110.13 99.723 0 195.36-39.617 265.87-110.13 70.512-70.512 110.13-166.15 110.13-265.87 0-99.719-39.613-195.36-110.12-265.87-70.516-70.516-166.15-110.13-265.88-110.13zm0 42.465c43.316 0 86.207 8.625 126.23 25.387 40.02 16.762 76.379 41.332 107.01 72.305s54.926 67.738 71.5 108.21c16.578 40.465 25.105 83.84 25.105 127.64 0 88.461-34.75 173.3-96.605 235.84-61.859 62.551-145.75 97.691-233.23 97.691-43.312 0-86.207-8.625-126.22-25.387-40.02-16.762-76.383-41.332-107.01-72.301-30.629-30.973-54.926-67.742-71.504-108.21-16.574-40.469-25.105-83.84-25.105-127.64s8.5312-87.172 25.105-127.64c16.578-40.469 40.871-77.238 71.5-108.21 30.629-30.969 66.992-55.539 107.01-72.301 40.02-16.762 82.914-25.387 126.23-25.387z" fill="#fff"/>
  <path d="m209.77 519.02c33.625-62.512 71.512-109.87 180.43-105.14 1.8945 0 4.7344 2.8398 4.7344 4.7344v47.359c0 3.3164 4.7344 9.4727 9.4727 4.7344l126.45-107.03c1.8945-1.4219 1.8945-4.2617 0-5.6836l-126.44-100.4c-2.3672-1.8945-9.4727 0-9.4727 4.7344v47.359c0 1.8945-2.8398 4.7344-4.7344 4.7344-189.43 18.941-179.49 165.75-186.59 201.27-0.94922 3.7891 4.2578 6.6328 6.1523 3.3164z" fill="#70d258"/>
 </g>
</svg>
