<?xml version="1.0" encoding="UTF-8"?>
<svg width="752pt" height="752pt" version="1.1" viewBox="0 0 752 752" xmlns="http://www.w3.org/2000/svg">
 <g fill="#ff814a">
  <path d="m376 0c-49.375 0-98.27 9.7266-143.89 28.621-45.621 18.895-87.07 46.59-121.98 81.508-34.918 34.914-62.613 76.363-81.508 121.98-18.895 45.617-28.621 94.512-28.621 143.89 0 99.723 39.617 195.36 110.13 265.87 70.516 70.516 166.15 110.13 265.87 110.13 99.723 0 195.36-39.617 265.87-110.13 70.512-70.512 110.13-166.15 110.13-265.87 0-99.719-39.613-195.36-110.12-265.87-70.516-70.516-166.15-110.13-265.88-110.13zm0 42.465c43.316 0 86.207 8.625 126.23 25.387 40.02 16.762 76.379 41.332 107.01 72.305s54.926 67.738 71.5 108.21c16.578 40.465 25.105 83.84 25.105 127.64 0 88.461-34.75 173.3-96.605 235.84-61.859 62.551-145.75 97.691-233.23 97.691-43.312 0-86.207-8.625-126.22-25.387-40.02-16.762-76.383-41.332-107.01-72.301-30.629-30.973-54.926-67.742-71.504-108.21-16.574-40.469-25.105-83.84-25.105-127.64s8.5312-87.172 25.105-127.64c16.578-40.469 40.871-77.238 71.5-108.21 30.629-30.969 66.992-55.539 107.01-72.301 40.02-16.762 82.914-25.387 126.23-25.387z"/>
  <path d="m205.98 485.87c1.8945 0.94531 3.7891 1.4219 5.6836 1.4219 3.7891 0 7.5781-1.4219 9.9453-4.7344 48.305-56.359 144.92-55.883 168.59-54.938v43.098c0 6.1562 4.2617 12.312 9.9453 14.68 5.2109 2.3672 10.891 0.94531 15.156-3.3164l126.45-106.55c3.3164-2.3672 4.7344-6.1562 4.7344-10.418s-1.8945-7.5781-5.2109-10.418l-126.44-99.926c-4.2617-3.3164-10.418-3.7891-16.102-0.94531-5.2109 2.8398-8.5273 7.5742-8.5273 13.258v43.57c-143.02 27.941-181.38 112.71-191.33 161.02-1.418 5.6836 1.8984 11.367 7.1055 14.207zm190.86-157.23c5.6836-0.94531 12.312-7.1055 12.312-14.207v-39.781l115.08 91.402-115.08 97.082v-39.781c0-7.1055-6.6289-13.734-13.734-14.207-3.7891-0.47266-9.9453-0.47266-18.469-0.47266-35.52 0-106.08 5.6836-153.91 46.41 15.629-44.516 57.777-105.14 173.8-126.45z"/>
 </g>
</svg>
